<?xml version="1.0" encoding="iso-8859-1"?>
<!-- Uploaded to: SVG Repo, www.svgrepo.com, Generator: SVG Repo Mixer Tools -->
<svg fill="#000000" height="800px" width="800px" version="1.1" id="Layer_1" xmlns="http://www.w3.org/2000/svg" xmlns:xlink="http://www.w3.org/1999/xlink" 
	 viewBox="0 0 512 512" xml:space="preserve">
<g>
	<g>
		<path d="M506.837,1.002c-3.14-1.357-6.775-0.7-9.242,1.656L107.068,373.687c-20.258,22.238-15.394,56.175,11.827,82.517
			c15.087,14.601,35.883,24.926,57.293,24.926c16.051,0,32.461-5.811,47.036-19.977L509.397,185.04
			c1.664-1.604,2.603-3.823,2.603-6.144V8.844C512,5.431,509.969,2.342,506.837,1.002z M211.345,448.891
			c-25.865,25.148-59.904,15.061-80.58-4.949c-16.538-16.009-27.051-41.225-11.511-58.325l71.842-68.25
			c0.299,0.538,72.021,81.57,72.021,81.57L211.345,448.891z M275.405,387.084c0,0-71.868-80.478-72.542-80.896l60.245-57.233
			c0,0,71.569,80.137,72.038,80.486L275.405,387.084z M494.933,175.278L347.025,317.981c-0.205-0.29-71.535-80.785-71.535-80.785
			L494.933,28.718V175.278z"/>
	</g>
</g>
<g>
	<g>
		<path d="M93.867,494.63H8.533c-4.719,0-8.533,3.823-8.533,8.533s3.814,8.533,8.533,8.533h85.333c4.719,0,8.533-3.823,8.533-8.533
			S98.586,494.63,93.867,494.63z"/>
	</g>
</g>
<g>
	<g>
		<path d="M503.467,494.63H264.533c-4.719,0-8.533,3.823-8.533,8.533s3.814,8.533,8.533,8.533h238.933
			c4.719,0,8.533-3.823,8.533-8.533S508.186,494.63,503.467,494.63z"/>
	</g>
</g>
</svg>