<?xml version="1.0" encoding="iso-8859-1"?>
<!-- Uploaded to: SVG Repo, www.svgrepo.com, Generator: SVG Repo Mixer Tools -->
<!DOCTYPE svg PUBLIC "-//W3C//DTD SVG 1.1//EN" "http://www.w3.org/Graphics/SVG/1.1/DTD/svg11.dtd">
<svg fill="#000000" height="800px" width="800px" version="1.1" id="Capa_1" xmlns="http://www.w3.org/2000/svg" xmlns:xlink="http://www.w3.org/1999/xlink" 
	 viewBox="0 0 329.997 329.997" xml:space="preserve">
<g>
	<path d="M323.677,68.844l-27-60C294.255,3.461,288.901,0,282.999,0h-236C41.096,0,35.742,3.461,33.32,8.844l-27,60
		c-2.089,4.642-1.682,10.025,1.082,14.3S14.909,90,19.999,90v224.997c0,8.284,6.716,15,15,15h260c8.284,0,15-6.716,15-15V90
		c5.09,0,9.833-2.582,12.597-6.856C325.359,78.869,325.766,73.485,323.677,68.844z M56.698,30h216.602l13.5,29.998H43.198L56.698,30
		z M279.999,299.997h-230V90h230V299.997z"/>
	<path d="M84.802,257.301c2.887,2.676,6.544,3.999,10.192,3.999c4.03,0,8.05-1.614,11.005-4.804l47.743-51.51l12.316,12.315
		c2.884,2.884,6.864,4.482,10.895,4.391c4.077-0.078,7.947-1.813,10.719-4.806l34.567-37.333c2.643,4.28,7.361,7.142,12.76,7.142
		c8.284,0,15-6.716,15-15v-28c0-8.284-6.716-15-15-15h-28c-8.284,0-15,6.716-15,15c0,6.381,3.991,11.816,9.607,13.984
		l-25.357,27.387l-12.31-12.311c-2.884-2.884-6.833-4.469-10.891-4.391c-4.076,0.077-7.945,1.811-10.717,4.801l-58.334,62.938
		C78.366,242.179,78.726,251.67,84.802,257.301z"/>
</g>
</svg>